<svg width="189" height="60" viewBox="0 0 189 60" fill="none" xmlns="http://www.w3.org/2000/svg">
<path d="M46.605 49.245C47.235 49.245 47.235 49.26 47.235 49.68V51.84C47.235 53.235 47.16 53.385 46.47 53.475L46.14 53.52C46.02 53.61 46.02 53.955 46.14 54.045C46.86 54.015 47.595 54 48.345 54C49.035 54 49.77 54.015 50.52 54.045C50.64 53.955 50.64 53.61 50.52 53.52L50.16 53.46C49.47 53.34 49.38 53.235 49.38 51.84V46.26C49.38 44.865 49.47 44.73 50.16 44.625L50.46 44.58C50.58 44.49 50.58 44.145 50.46 44.055C49.77 44.085 49.08 44.1 48.345 44.1C47.625 44.1 46.89 44.085 46.065 44.055C45.945 44.145 45.945 44.49 46.065 44.58L46.47 44.64C47.16 44.745 47.235 44.865 47.235 46.26V48C47.235 48.435 47.235 48.45 46.605 48.45H43.485C42.87 48.45 42.855 48.435 42.855 48V46.26C42.855 44.865 42.945 44.715 43.59 44.625L43.905 44.58C44.025 44.49 44.025 44.145 43.905 44.055C43.245 44.085 42.495 44.1 41.82 44.1C41.1 44.1 40.32 44.085 39.585 44.055C39.465 44.145 39.465 44.49 39.585 44.58L39.945 44.625C40.635 44.715 40.71 44.865 40.71 46.26V51.84C40.71 53.235 40.635 53.385 39.945 53.475L39.585 53.52C39.465 53.61 39.465 53.955 39.585 54.045C40.35 54.015 41.1 54 41.82 54C42.495 54 43.245 54.015 44.1 54.045C44.22 53.955 44.22 53.61 44.1 53.52L43.62 53.46C42.945 53.37 42.855 53.235 42.855 51.84V49.68C42.855 49.26 42.87 49.245 43.485 49.245H46.605ZM66.04 43.86C62.905 43.86 60.685 46.155 60.685 49.125C60.685 52.26 62.875 54.24 65.89 54.24C69.115 54.24 71.305 52.275 71.305 49.005C71.305 45.96 69.16 43.86 66.04 43.86ZM68.905 49.2C68.905 51.63 68.14 53.55 66.175 53.55C63.73 53.55 63.085 50.61 63.085 48.78C63.085 46.275 64.075 44.55 65.92 44.55C67.78 44.55 68.905 46.635 68.905 49.2ZM84.2771 51.84C84.2771 53.235 84.1871 53.37 83.5121 53.445L82.8371 53.52C82.7171 53.61 82.7171 53.955 82.8371 54.045C83.8871 54.015 84.6671 54 85.3871 54C86.0621 54 86.8121 54.015 87.7871 54.045C87.8921 53.955 87.8921 53.61 87.7871 53.52L87.1871 53.445C86.5121 53.355 86.4221 53.235 86.4221 51.84V45.225C86.4221 44.835 86.4671 44.79 86.8271 44.79H87.7271C88.8521 44.79 89.0621 45.495 89.3171 46.455C89.3921 46.575 89.7971 46.545 89.8721 46.41C89.8421 45.555 89.9471 44.34 90.0971 43.83C90.0671 43.785 89.9621 43.725 89.8721 43.725C89.7821 43.725 89.7371 43.74 89.6771 43.77C89.5421 44.085 89.3171 44.1 88.3271 44.1H82.7471C81.6071 44.1 81.5621 44.04 81.4871 43.785C81.4271 43.74 81.3521 43.725 81.2771 43.725C81.2021 43.725 81.1271 43.755 81.0671 43.8C80.9621 44.385 80.8871 45.315 80.5721 46.35C80.6621 46.545 80.9471 46.575 81.1271 46.485C81.5771 45.39 81.8921 44.79 82.9871 44.79H83.9171C84.2771 44.79 84.2771 44.865 84.2771 45.225V51.84ZM102.975 45.375C102.975 44.82 102.975 44.79 103.47 44.79H104.67C105.405 44.79 105.855 44.97 106.14 45.255C106.335 45.465 106.545 45.915 106.71 46.44C106.86 46.575 107.205 46.545 107.265 46.38C107.19 45.375 107.085 44.295 107.07 44.055C106.875 44.085 106.02 44.1 105.06 44.1H101.88C101.16 44.1 100.425 44.085 99.7201 44.055C99.5701 44.145 99.5551 44.49 99.6901 44.58L100.065 44.655C100.74 44.79 100.83 44.88 100.83 46.245V51.84C100.83 53.22 100.74 53.31 100.065 53.415L99.3601 53.52C99.2401 53.595 99.2401 53.955 99.3601 54.045C100.485 54.015 101.22 54 101.94 54H103.89C105.12 54 106.56 54.015 107.355 54.045C107.565 53.64 107.925 52.425 107.985 51.645C107.925 51.465 107.55 51.405 107.43 51.57C106.605 53.265 106.095 53.31 104.79 53.31C103.695 53.31 103.41 53.19 103.215 52.92C103.035 52.665 102.975 52.185 102.975 51.495V49.71C102.975 49.26 102.99 49.245 103.395 49.245H104.43C105.21 49.245 105.39 49.365 105.54 50.085L105.615 50.46C105.72 50.595 106.095 50.58 106.17 50.445C106.14 49.965 106.125 49.425 106.125 48.855C106.125 48.285 106.14 47.745 106.17 47.265C106.095 47.13 105.72 47.13 105.615 47.25L105.54 47.625C105.39 48.345 105.21 48.45 104.43 48.45H103.395C102.99 48.45 102.975 48.42 102.975 48V45.375ZM120.867 46.26C120.867 44.865 120.957 44.745 121.632 44.64L122.022 44.58C122.142 44.49 122.142 44.145 122.022 44.055C121.272 44.085 120.522 44.1 119.802 44.1C119.082 44.1 118.332 44.085 117.552 44.055C117.372 44.145 117.372 44.49 117.522 44.58L117.957 44.64C118.632 44.73 118.722 44.865 118.722 46.26V51.84C118.722 53.235 118.632 53.355 117.957 53.445L117.387 53.52C117.267 53.61 117.297 53.955 117.432 54.045C118.362 54.015 119.112 54 119.802 54H121.812C123.042 54 124.482 54.015 125.277 54.045C125.487 53.64 125.847 52.395 125.922 51.615C125.817 51.435 125.472 51.375 125.352 51.525C124.467 53.265 124.047 53.31 122.682 53.31C121.587 53.31 121.317 53.19 121.122 52.935C120.927 52.695 120.867 52.215 120.867 51.51V46.26ZM141.941 51.195C141.941 49.545 140.756 48.675 139.826 48.18L138.836 47.655C138.086 47.265 137.471 46.635 137.471 45.945C137.471 45.195 138.011 44.55 139.001 44.55C140.081 44.55 140.726 45.645 140.981 46.41C141.116 46.56 141.491 46.545 141.566 46.365C141.566 45.36 141.416 44.55 141.296 44.22C141.116 44.19 140.981 44.16 140.786 44.1C140.186 43.92 139.571 43.86 139.076 43.86C136.901 43.86 135.581 45.03 135.596 46.725C135.596 48.21 136.781 49.11 137.861 49.65C138.761 50.1 139.901 50.82 139.901 52.035C139.901 52.785 139.391 53.55 138.281 53.55C137.006 53.55 136.001 52.17 135.701 51.195C135.581 51.03 135.236 51.045 135.131 51.24C135.131 52.26 135.326 53.34 135.611 53.67C135.926 53.85 136.781 54.24 138.161 54.24C140.426 54.24 141.941 53.04 141.941 51.195Z" fill="#14274A"/>
<path d="M10.28 12.36C10.28 8.64 10.52 8.32 12.32 8.04L13.36 7.88C13.68 7.64 13.68 6.72 13.36 6.48C11.36 6.56 9.36 6.6 7.44 6.6C5.52 6.6 3.52 6.56 1.44 6.48C0.96 6.72 0.96 7.64 1.36 7.88L2.52 8.04C4.32 8.28 4.56 8.64 4.56 12.36V27.24C4.56 30.96 4.32 31.28 2.52 31.52L1 31.72C0.68 31.96 0.76 32.88 1.12 33.12C3.6 33.04 5.6 33 7.44 33H12.8C16.08 33 19.92 33.04 22.04 33.12C22.6 32.04 23.56 28.72 23.76 26.64C23.48 26.16 22.56 26 22.24 26.4C19.88 31.04 18.76 31.16 15.12 31.16C12.2 31.16 11.48 30.84 10.96 30.16C10.44 29.52 10.28 28.24 10.28 26.36V12.36ZM32.3131 22.36C32.3131 26.72 33.1931 29.68 35.2731 31.4C37.4331 33.16 40.1531 33.64 43.1931 33.64C46.4331 33.64 49.3531 32.64 51.1131 30.76C53.3131 28.32 53.6731 24.88 53.6731 21.12V16.64C53.6731 13.4 53.8331 10.36 54.2731 9.32C54.6331 8.48 55.3931 8.24 56.4331 8L57.1531 7.84C57.4731 7.52 57.3931 6.72 57.1531 6.48C55.6331 6.56 54.1531 6.6 52.6731 6.6C51.0331 6.6 49.4731 6.56 47.3131 6.48C47.0731 6.72 46.9931 7.52 47.3131 7.84L48.3931 8.04C49.4731 8.24 50.3531 8.48 50.7131 9.32C51.1531 10.36 51.3131 13.4 51.3131 16.64V21.48C51.3131 26.96 49.7531 31.44 44.6331 31.44C38.5531 31.44 38.0331 26.28 38.0331 21.6V12.36C38.0331 8.64 38.2731 8.32 40.0731 8L41.0331 7.84C41.3531 7.6 41.3531 6.72 41.0331 6.48C39.1131 6.56 37.1531 6.6 35.1931 6.6C33.2731 6.6 31.2731 6.56 29.3531 6.48C28.9131 6.72 28.9531 7.6 29.2731 7.84L30.2731 8.04C32.0731 8.4 32.3131 8.64 32.3131 12.36V22.36ZM63.0825 31.8C62.7225 32.04 62.8425 32.92 63.2425 33.12C64.4425 33.04 66.1225 33 67.4425 33C69.1225 33 70.9225 33.04 72.6825 33.12C73.1225 32.96 73.1625 32 72.8025 31.72L71.7625 31.6C70.9225 31.52 70.4825 31.32 70.4825 31.08C70.4825 30.84 70.5625 30.56 70.8425 30C72.1625 27.48 74.0425 24.44 75.6025 22.16C76.2025 22.92 79.2425 27.6 79.8425 28.68C80.8425 30.36 81.0025 30.72 81.0025 31.04C81.0025 31.28 80.5225 31.48 79.5225 31.6L78.4425 31.72C78.0425 31.92 78.2025 32.96 78.5625 33.12C80.7225 33.04 82.5225 33 85.2825 33C88.5225 33 89.7625 33.04 91.5225 33.12C91.9225 32.84 91.9225 32 91.6425 31.72L90.4025 31.56C88.8825 31.36 87.8825 30.8 86.4825 28.68C85.0425 26.52 83.0825 23.52 80.0825 18.88C79.6825 18.28 79.5225 17.84 79.5225 17.64C79.5225 17.44 79.9225 16.84 80.3225 16.28C82.2025 13.72 83.9625 11.08 85.8825 9.12C86.6025 8.4 87.3225 8.24 88.1625 8.12L89.8425 7.88C90.1225 7.52 90.0825 6.68 89.6825 6.48C88.4025 6.56 86.7625 6.6 84.8425 6.6C82.9625 6.6 81.6825 6.56 80.4425 6.48C80.0025 6.68 80.0025 7.6 80.3225 7.88L81.9225 8.16C82.4425 8.24 82.7225 8.44 82.7225 8.56C82.7225 8.76 82.7225 9.04 82.2825 9.76C81.0425 11.88 79.7225 13.84 78.2425 16.08C77.0025 14.28 75.5625 12.08 74.4825 10.2C74.0025 9.36 73.8425 9 73.8425 8.64C73.8425 8.36 74.5625 8.16 75.2025 8.04L76.0825 7.88C76.3625 7.56 76.3625 6.68 75.9225 6.48C74.6825 6.56 73.0825 6.6 69.8425 6.6C67.4025 6.6 64.8825 6.56 63.6025 6.48C63.2025 6.72 63.2025 7.56 63.5625 7.88L64.2425 8C66.0425 8.32 66.8825 8.84 67.8025 10.16C69.6825 12.84 72.2025 16.8 73.5225 18.76C74.0425 19.48 74.2425 20 74.2425 20.16C74.2425 20.4 74.0425 20.88 73.6825 21.4C71.9625 23.96 69.8025 27.08 68.6425 28.6C67.3225 30.4 66.4025 31.36 64.0025 31.68L63.0825 31.8ZM100.524 22.36C100.524 26.72 101.404 29.68 103.484 31.4C105.644 33.16 108.364 33.64 111.404 33.64C114.644 33.64 117.564 32.64 119.324 30.76C121.524 28.32 121.884 24.88 121.884 21.12V16.64C121.884 13.4 122.044 10.36 122.484 9.32C122.844 8.48 123.604 8.24 124.644 8L125.364 7.84C125.684 7.52 125.604 6.72 125.364 6.48C123.844 6.56 122.364 6.6 120.884 6.6C119.244 6.6 117.684 6.56 115.524 6.48C115.284 6.72 115.204 7.52 115.524 7.84L116.604 8.04C117.684 8.24 118.564 8.48 118.924 9.32C119.364 10.36 119.524 13.4 119.524 16.64V21.48C119.524 26.96 117.964 31.44 112.844 31.44C106.764 31.44 106.244 26.28 106.244 21.6V12.36C106.244 8.64 106.484 8.32 108.284 8L109.244 7.84C109.564 7.6 109.564 6.72 109.244 6.48C107.324 6.56 105.364 6.6 103.404 6.6C101.484 6.6 99.4841 6.56 97.5641 6.48C97.1241 6.72 97.1641 7.6 97.4841 7.84L98.4841 8.04C100.284 8.4 100.524 8.64 100.524 12.36V22.36ZM136.333 27.24C136.333 30.92 136.093 31.2 134.293 31.52L133.213 31.72C132.893 31.92 132.893 32.88 133.213 33.12C135.293 33.04 137.053 33 139.053 33C140.973 33 142.813 33.04 144.933 33.12C145.213 32.88 145.213 31.92 144.933 31.72L143.853 31.52C142.053 31.2 141.813 30.92 141.813 27.24V22.32C141.813 21.52 141.893 21.44 143.293 21.44C144.293 21.44 144.933 21.76 145.413 22.84C146.333 24.96 147.253 26.92 148.533 29.04C150.293 31.92 152.613 33.24 156.293 33.24C157.533 33.24 158.813 33.16 159.453 32.88C159.653 32.64 159.653 32.04 159.293 31.84C158.693 31.8 157.653 31.56 156.613 30.72C154.693 29.08 153.053 26.08 150.413 20.72C150.213 20.28 150.213 20.04 150.613 19.84C152.453 18.92 154.853 17.4 154.853 13.84C154.853 11.28 153.653 9.28 151.333 7.92C149.813 7 146.893 6.48 143.493 6.48C139.693 6.48 136.573 6.64 133.573 6.84C133.093 7.04 133.093 8.04 133.493 8.24L134.573 8.4C136.253 8.64 136.333 9.08 136.333 13.08V27.24ZM141.813 10.36C141.813 8.44 141.893 8.32 143.533 8.32C146.653 8.32 148.773 10.64 148.773 14.24C148.773 16.6 148.013 17.88 147.333 18.56C146.573 19.32 145.733 19.68 144.293 19.68C141.933 19.68 141.813 19.56 141.813 18.16V10.36ZM177.493 24.44C177.493 22.16 177.773 21.16 178.813 19.28L181.333 14.72C183.253 11.24 184.213 9.8 184.813 9.04C185.253 8.48 186.173 8.2 186.893 8.08L187.933 7.88C188.253 7.6 188.253 6.64 187.773 6.48C186.613 6.56 185.373 6.6 183.853 6.6C182.413 6.6 180.973 6.56 179.373 6.48C178.973 6.68 179.013 7.68 179.333 7.88L180.093 8.04C181.053 8.2 181.693 8.44 181.693 8.68C181.693 9.16 181.213 10.36 179.773 13.2C178.733 15.24 177.493 17.84 176.333 19.8C175.853 18.8 174.933 16.96 174.333 15.64L172.453 11.36C171.613 9.48 171.413 8.88 171.413 8.56C171.413 8.52 171.653 8.36 172.373 8.2L173.733 7.88C174.093 7.56 174.013 6.64 173.653 6.48C172.293 6.56 170.253 6.6 167.812 6.6C165.452 6.6 163.973 6.56 162.172 6.48C161.692 6.6 161.652 7.56 162.012 7.88L163.373 8.12C164.773 8.36 165.133 9 165.933 10.64L170.693 20.48C171.733 22.6 171.773 23.24 171.773 25.24V27.24C171.773 30.96 171.533 31.24 169.733 31.52L168.373 31.72C168.053 31.96 168.053 32.88 168.373 33.12C170.733 33.04 172.733 33 174.653 33C176.573 33 178.533 33.04 181.133 33.12C181.413 32.88 181.413 31.96 181.133 31.72L179.533 31.52C177.733 31.28 177.493 30.96 177.493 27.24V24.44Z" fill="#14274A"/>
</svg>
